<?xml version="1.0" encoding="UTF-8" standalone="no"?><!DOCTYPE svg PUBLIC "-//W3C//DTD SVG 1.1//EN" "http://www.w3.org/Graphics/SVG/1.1/DTD/svg11.dtd"><svg width="100%" height="100%" viewBox="0 0 148 41" version="1.1" xmlns="http://www.w3.org/2000/svg" xmlns:xlink="http://www.w3.org/1999/xlink" xml:space="preserve" xmlns:serif="http://www.serif.com/" style="fill-rule:evenodd;clip-rule:evenodd;stroke-linejoin:round;stroke-miterlimit:2;"><g><g><path d="M48.094,18.61c4.774,0 7.655,-2.598 7.655,-6.568c0,-3.971 -2.881,-6.583 -7.655,-6.583l-8.222,0l0,20.633l4.142,0l0,-7.482l4.08,0Zm-4.08,-9.972l4.08,0c2.348,0 3.529,1.435 3.529,3.435c0,1.97 -1.212,3.341 -3.529,3.341l-4.08,0l0,-6.776Z" style="fill:#fff;fill-rule:nonzero;"/><path d="M75.387,13.948c0,-5.074 -3.51,-8.758 -8.662,-8.758c-5.104,0 -8.553,3.684 -8.553,8.758l0,3.718c0,5.088 3.464,8.756 8.568,8.756c5.152,0 8.647,-3.668 8.647,-8.756l0,-3.718Zm-4.124,3.718c0,3.277 -1.671,5.546 -4.523,5.546c-2.804,0 -4.443,-2.269 -4.443,-5.546l0,-3.749c0,-3.246 1.591,-5.499 4.428,-5.499c2.852,0 4.538,2.269 4.538,5.499l0,3.749Z" style="fill:#fff;fill-rule:nonzero;"/><path d="M92.026,5.459l-15.798,0l0,3.179l5.813,0l0,17.454l4.14,0l0,-17.454l5.845,0l0,-3.179Z" style="fill:#fff;fill-rule:nonzero;"/><path d="M107.842,5.459l-3.056,0l-3.859,14.144l-0.094,-0.016l-2.961,-14.128l-4.049,0l4.836,20.633l3.827,0l3.796,-13.625l0.079,0l3.78,13.625l3.844,0l4.82,-20.633l-4.033,0l-2.945,14.144l-0.095,0l-3.89,-14.144Z" style="fill:#fff;fill-rule:nonzero;"/><rect x="122.278" y="5.459" width="4.125" height="20.634" style="fill:#fff;"/><path d="M147.226,5.459l-4.125,0l0,14.065l-0.095,0.016l-8.335,-14.081l-4.141,0l0,20.633l4.141,0l0,-14.097l0.094,-0.016l8.336,14.113l4.125,0l0,-20.633Z" style="fill:#fff;fill-rule:nonzero;"/></g><g><path d="M45.485,37.233c0,1.44 -0.752,2.231 -2.209,2.231c-1.471,0 -2.383,-1.255 -2.383,-2.991l0,-2.008c0,-1.712 0.896,-2.983 2.335,-2.983c1.489,0 2.257,0.823 2.257,2.239l1.694,0l0.016,-0.04c0.032,-2.207 -1.479,-3.599 -3.967,-3.599c-2.431,0 -4.086,1.823 -4.086,4.399l0,1.992c0,2.576 1.679,4.39 4.134,4.39c2.432,0 3.943,-1.446 3.911,-3.582l-0.015,-0.048l-1.687,0Z" style="fill:#fff;fill-rule:nonzero;"/><path d="M57.077,34.53c0,-2.561 -1.767,-4.448 -4.342,-4.448c-2.521,0 -4.231,1.887 -4.231,4.448l0,1.887c0,2.576 1.71,4.446 4.239,4.446c2.575,0 4.334,-1.87 4.334,-4.446l0,-1.887Zm-1.743,1.887c0,1.776 -0.984,3.016 -2.591,3.016c-1.552,0 -2.496,-1.249 -2.496,-3.016l0,-1.904c0,-1.76 0.944,-2.992 2.488,-2.992c1.599,0 2.599,1.232 2.599,2.992l0,1.904Z" style="fill:#fff;fill-rule:nonzero;"/><path d="M67.138,30.22l-1.735,0l0,7.629l-0.047,0.008l-4.648,-7.637l-1.752,0l0,10.476l1.752,0l0,-7.637l0.04,-0.016l4.655,7.653l1.735,0l0,-10.476Z" style="fill:#fff;fill-rule:nonzero;"/><path d="M73.072,39.472c-1.423,0 -2.383,-0.623 -2.383,-1.896l-1.687,0l-0.016,0.041c-0.04,2.023 1.895,3.246 4.094,3.246c2.28,0 3.799,-1.11 3.799,-2.854c0,-1.664 -1.183,-2.688 -3.447,-3.295c-1.728,-0.473 -2.407,-0.944 -2.407,-1.737c0,-0.887 0.703,-1.503 1.992,-1.503c1.36,0 2.104,0.727 2.104,1.807l1.679,0l0.015,-0.04c0.04,-1.743 -1.479,-3.159 -3.79,-3.159c-2.216,0 -3.751,1.208 -3.751,2.904c0,1.647 1.295,2.591 3.655,3.215c1.648,0.44 2.2,0.952 2.2,1.824c0,0.903 -0.752,1.455 -2.049,1.455l-0.008,-0.008Z" style="fill:#fff;fill-rule:nonzero;"/><path d="M85.873,30.22l-8.085,0l0,1.398l3.167,0l0,9.078l1.75,0l0,-9.078l3.168,0l0,-1.398Z" style="fill:#fff;fill-rule:nonzero;"/><path d="M88.989,31.618l2.121,0c1.305,0 1.928,0.633 1.928,1.696c0,1.105 -0.608,1.633 -2.016,1.633l-2.033,0l0,-3.329Zm2.329,4.727c1.08,0 1.728,0.68 1.728,1.76l0,0.84c0,0.656 0.072,1.432 0.457,1.751l1.797,0l0,-0.167c-0.368,-0.312 -0.503,-0.944 -0.503,-1.568l0,-0.872c0,-1.24 -0.472,-2.104 -1.663,-2.479c1.079,-0.472 1.647,-1.248 1.647,-2.343c0,-1.96 -1.311,-3.047 -3.671,-3.047l-3.87,0l0,10.476l1.749,0l0,-4.351l2.329,0Z" style="fill:#fff;fill-rule:nonzero;"/><path d="M103.217,30.234l0,7.022c0,1.48 -0.912,2.207 -2.36,2.207c-1.408,0 -2.288,-0.727 -2.288,-2.207l0,-7.022l-1.743,0l0,7.022c0,2.328 1.624,3.607 4.039,3.607c2.455,0 4.11,-1.271 4.11,-3.607l0,-7.022l-1.758,0Z" style="fill:#fff;fill-rule:nonzero;"/><path d="M113.001,37.233c0,1.44 -0.753,2.231 -2.209,2.231c-1.471,0 -2.383,-1.255 -2.383,-2.991l0,-2.008c0,-1.712 0.895,-2.983 2.336,-2.983c1.488,0 2.256,0.823 2.256,2.239l1.694,0l0.016,-0.04c0.031,-2.207 -1.479,-3.599 -3.966,-3.599c-2.433,0 -4.087,1.823 -4.087,4.399l0,1.992c0,2.576 1.678,4.39 4.134,4.39c2.432,0 3.942,-1.446 3.911,-3.582l-0.016,-0.048l-1.686,0Z" style="fill:#fff;fill-rule:nonzero;"/><path d="M123.373,30.22l-8.084,0l0,1.398l3.167,0l0,9.078l1.751,0l0,-9.078l3.166,0l0,-1.398Z" style="fill:#fff;fill-rule:nonzero;"/><rect x="124.848" y="30.22" width="1.743" height="10.476" style="fill:#fff;"/><path d="M137.155,34.53c0,-2.561 -1.766,-4.448 -4.342,-4.448c-2.52,0 -4.23,1.887 -4.23,4.448l0,1.887c0,2.576 1.71,4.446 4.239,4.446c2.574,0 4.333,-1.87 4.333,-4.446l0,-1.887Zm-1.742,1.887c0,1.776 -0.984,3.016 -2.591,3.016c-1.553,0 -2.497,-1.249 -2.497,-3.016l0,-1.904c0,-1.76 0.944,-2.992 2.488,-2.992c1.599,0 2.6,1.232 2.6,2.992l0,1.904Z" style="fill:#fff;fill-rule:nonzero;"/><path d="M147.226,30.22l-1.735,0l0,7.629l-0.047,0.008l-4.649,-7.637l-1.751,0l0,10.476l1.751,0l0,-7.637l0.04,-0.016l4.656,7.653l1.735,0l0,-10.476Z" style="fill:#fff;fill-rule:nonzero;"/></g><g><path d="M13.117,40.618l-5.864,0l0,-35.195l-7.253,0c0.03,-1.516 4.339,-5.423 5.88,-5.423l13.713,0l0,5.423l-6.476,0l0,35.195Z" style="fill:#fff;"/><path d="M16.649,19.784l4.324,0c4.368,0 6.539,-2.978 6.539,-7.135c0,-3.405 -1.457,-6.081 -4.387,-6.938l0,-5.576c6.486,0.85 10.251,5.609 10.251,12.453c0,7.692 -4.605,12.618 -12.403,12.618l-4.324,0l0,-5.422Z" style="fill:#fff;"/></g></g></svg>